<svg width="372" height="500" xmlns="http://www.w3.org/2000/svg">
 <title/>
 <g>
  <title>Layer 1</title>
  <path fill="#000000" d="m5.01736,36.95012m128.34381,-14c-2.00537,-12 -29.66246,-13.124 -31.08327,3c-6.83431,-4.175 -10.02686,-10 -19.05103,1c-5.6752,-11.772 -36.0967,-17 -40.10744,4c-8.02149,-5 -13.03492,-3 -17.04566,5c-5.08482,-5.949 -11.58995,-10.043 -18.04835,-8.347c-6.24202,1.639 -10.02686,6.347 -9.42184,16.029c1.03587,2.109 3.33935,2.207 5.41571,2.299c5.32567,0.234 10.70748,0.019 16.03836,0.019l68.18265,0l282.75746,0c6.01612,-34 -22.05909,-36 -35.09401,-23c-5.01343,-7 -22.05909,-19 -41.11013,4c-12.03223,-15 -29.07789,-9 -31.08327,0c-3.67284,-15.36 -17.74453,-22.829 -37.09938,-14c-16.04298,-13 -84.22563,-17 -93.2498,10z" fill="#fdfeff" id="svg_2"/>
 </g>

</svg>